<?xml version="1.0" encoding="UTF-8"?>
<svg version="1.1" xmlns="http://www.w3.org/2000/svg" width="512" height="512">
<path d="M0 0 C0.99606262 0.00182281 1.99212524 0.00364563 3.01837158 0.00552368 C17.53080287 0.05026745 31.66059519 0.50780957 45.9375 3.3125 C46.83307617 3.47347168 47.72865234 3.63444336 48.65136719 3.80029297 C92.25813051 11.68952492 133.39606217 31.37899133 166.9375 60.3125 C167.68257813 60.94671875 168.42765625 61.5809375 169.1953125 62.234375 C182.70029833 74.04551515 195.37168743 86.79610228 205.9375 101.3125 C206.79399066 102.46244831 207.65076433 103.61218589 208.5078125 104.76171875 C214.5484414 112.95339526 219.90755071 121.46895078 224.9375 130.3125 C225.30198242 130.94430176 225.66646484 131.57610352 226.04199219 132.22705078 C240.97335402 158.31410351 250.44670268 187.64750247 254.9375 217.3125 C255.11482666 218.43132568 255.29215332 219.55015137 255.47485352 220.70288086 C257.15626341 232.42485947 257.29484341 244.04748976 257.25 255.875 C257.24784485 256.89540375 257.2456897 257.9158075 257.24346924 258.96713257 C257.19383352 273.59460524 256.94669712 287.94513838 253.9375 302.3125 C253.63948486 303.77478027 253.63948486 303.77478027 253.33544922 305.26660156 C243.21482806 353.6484774 221.2983123 397.63678269 186.9375 433.3125 C186.30537598 433.97185547 185.67325195 434.63121094 185.02197266 435.31054688 C175.87509947 444.80132 166.57304306 453.52570776 155.9375 461.3125 C154.84469886 462.13494754 153.75225034 462.95786382 152.66015625 463.78125 C99.37006051 503.42349981 30.90162452 519.70632858 -34.8125 511.1875 C-38.25373108 510.6644303 -41.65511349 510.02176149 -45.0625 509.3125 C-46.03880371 509.11382324 -47.01510742 508.91514648 -48.02099609 508.71044922 C-91.28876033 499.65819013 -131.48904748 481.27362518 -165.0625 452.3125 C-165.80757813 451.67828125 -166.55265625 451.0440625 -167.3203125 450.390625 C-180.82529833 438.57948485 -193.49668743 425.82889772 -204.0625 411.3125 C-204.91899066 410.16255169 -205.77576433 409.01281411 -206.6328125 407.86328125 C-212.67284209 399.67315742 -218.05617614 391.16870382 -223.0625 382.3125 C-223.4646875 381.60528809 -223.866875 380.89807617 -224.28125 380.16943359 C-237.3066741 357.03404164 -246.05551461 331.86287591 -251.375 305.875 C-251.52235596 305.15610596 -251.66971191 304.43721191 -251.8215332 303.6965332 C-254.61090125 289.02089502 -255.41142619 274.49581162 -255.37817383 259.58520508 C-255.3750221 256.64561513 -255.39854926 253.7070442 -255.42382812 250.76757812 C-255.46848737 237.39443808 -254.26301542 224.49833289 -252.0625 211.3125 C-251.87437744 210.17546631 -251.68625488 209.03843262 -251.49243164 207.86694336 C-243.72044532 164.59947241 -223.73345309 123.54956784 -195.0625 90.3125 C-194.42828125 89.56742187 -193.7940625 88.82234375 -193.140625 88.0546875 C-181.32948485 74.54970167 -168.57889772 61.87831257 -154.0625 51.3125 C-152.91255169 50.45600934 -151.76281411 49.59923567 -150.61328125 48.7421875 C-142.42315742 42.70215791 -133.91870382 37.31882386 -125.0625 32.3125 C-124.35528809 31.9103125 -123.64807617 31.508125 -122.91943359 31.09375 C-96.71609344 16.34104475 -67.77645458 6.80758892 -38.0625 2.3125 C-36.93787354 2.13517334 -35.81324707 1.95784668 -34.65454102 1.77514648 C-23.10059556 0.12374292 -11.65784453 -0.04420897 0 0 Z " fill="#C03A2B" transform="translate(255.0625,-0.31250000000000006)"/>
<path d="M0 0 C0.99 0.33 1.98 0.66 3 1 C3.16512254 7.95668434 2.53925916 14.55475525 1.5625 21.4375 C1.2914752 23.39432497 1.0219315 25.35135568 0.75390625 27.30859375 C0.63345947 28.16251709 0.5130127 29.01644043 0.38891602 29.89624023 C-0.58105077 37.63709886 -1.1511665 45.23550782 -1.1328125 53.0390625 C-1.13424759 54.42585709 -1.13424759 54.42585709 -1.13571167 55.84066772 C-1.13638751 57.78521798 -1.13457517 59.72977058 -1.13037109 61.67431641 C-1.12505145 64.59673342 -1.13031751 67.51899416 -1.13671875 70.44140625 C-1.1713064 160.9865832 36.77096052 245.80799446 100 310 C107.92187455 317.80200831 116.21080193 325.1869974 125 332 C125.69834961 332.54382324 126.39669922 333.08764648 127.11621094 333.64794922 C172.68248569 368.95659319 225.90059221 393.42132499 283.046875 402.27734375 C284.07553932 402.43904053 284.07553932 402.43904053 285.12498474 402.60400391 C288.5224138 403.13671046 291.92061297 403.64916759 295.32641602 404.12548828 C297.16997681 404.40561768 297.16997681 404.40561768 299.05078125 404.69140625 C300.15075439 404.84810791 301.25072754 405.00480957 302.3840332 405.16625977 C305 406 305 406 306.37182617 408.08178711 C306.57912354 408.71479736 306.7864209 409.34780762 307 410 C251.17323915 459.89903822 181.92656498 478.90250761 108.14160156 474.78466797 C101.66863462 474.27354217 95.35417565 473.32264775 89 472 C88.02369629 471.80132324 87.04739258 471.60264648 86.04150391 471.39794922 C42.77373967 462.34569013 2.57345252 443.96112518 -31 415 C-31.74507813 414.36578125 -32.49015625 413.7315625 -33.2578125 413.078125 C-46.76279833 401.26698485 -59.43418743 388.51639772 -70 374 C-70.85649066 372.85005169 -71.71326433 371.70031411 -72.5703125 370.55078125 C-78.61034209 362.36065742 -83.99367614 353.85620382 -89 345 C-89.4021875 344.29278809 -89.804375 343.58557617 -90.21875 342.85693359 C-103.2441741 319.72154164 -111.99301461 294.55037591 -117.3125 268.5625 C-117.45985596 267.84360596 -117.60721191 267.12471191 -117.7590332 266.3840332 C-120.54840125 251.70839502 -121.34892619 237.18331162 -121.31567383 222.27270508 C-121.3125221 219.33311513 -121.33604926 216.3945442 -121.36132812 213.45507812 C-121.40598737 200.08193808 -120.20051542 187.18583289 -118 174 C-117.81187744 172.86296631 -117.62375488 171.72593262 -117.42993164 170.55444336 C-109.65794532 127.28697241 -89.67095309 86.23706784 -61 53 C-60.36578125 52.25492188 -59.7315625 51.50984375 -59.078125 50.7421875 C-47.27641739 37.24798694 -34.53623047 24.52267989 -20 14 C-19.38576172 13.55156738 -18.77152344 13.10313477 -18.13867188 12.64111328 C-14.12300116 9.71585162 -10.08099358 6.83346212 -6 4 C-4.9378125 3.22527344 -3.875625 2.45054688 -2.78125 1.65234375 C-1.8634375 1.10707031 -0.945625 0.56179687 0 0 Z " fill="#C03A2C" transform="translate(121,37)"/>
<path d="M0 0 C0.16512254 6.95668434 -0.46074084 13.55475525 -1.4375 20.4375 C-1.7085248 22.39432497 -1.9780685 24.35135568 -2.24609375 26.30859375 C-2.36654053 27.16251709 -2.4869873 28.01644043 -2.61108398 28.89624023 C-3.58105077 36.63709886 -4.1511665 44.23550782 -4.1328125 52.0390625 C-4.13376923 52.96359222 -4.13472595 53.88812195 -4.13571167 54.84066772 C-4.13638751 56.78521798 -4.13457517 58.72977058 -4.13037109 60.67431641 C-4.12505145 63.59673342 -4.13031751 66.51899416 -4.13671875 69.44140625 C-4.1713064 159.9865832 33.77096052 244.80799446 97 309 C104.92187455 316.80200831 113.21080193 324.1869974 122 331 C122.69834961 331.54382324 123.39669922 332.08764648 124.11621094 332.64794922 C169.68248569 367.95659319 222.90059221 392.42132499 280.046875 401.27734375 C281.07553932 401.43904053 281.07553932 401.43904053 282.12498474 401.60400391 C285.5224138 402.13671046 288.92061297 402.64916759 292.32641602 403.12548828 C294.16997681 403.40561768 294.16997681 403.40561768 296.05078125 403.69140625 C297.15075439 403.84810791 298.25072754 404.00480957 299.3840332 404.16625977 C302 405 302 405 303.37182617 407.08178711 C303.57912354 407.71479736 303.7864209 408.34780762 304 409 C301.85339876 411.02600567 299.68694781 413.0183575 297.5 415 C296.89929688 415.57234375 296.29859375 416.1446875 295.6796875 416.734375 C292.44508412 419.62487164 290.65350302 420.91054452 286.26171875 421.51171875 C280.88665712 421.06866919 275.58269438 419.92019608 270.3125 418.8125 C269.20672607 418.58328857 268.10095215 418.35407715 266.96166992 418.11791992 C263.63884104 417.4222332 260.31939131 416.71187926 257 416 C256.10023438 415.81308594 255.20046875 415.62617188 254.2734375 415.43359375 C228.82160105 410.11471152 204.45971702 401.104401 181 390 C179.66702881 389.37375732 179.66702881 389.37375732 178.30712891 388.73486328 C149.83639518 375.25604267 122.65523724 357.67429185 99.4765625 336.265625 C97.46715056 334.42736171 95.42861162 332.64892895 93.36328125 330.875 C88.2166858 326.38163552 83.3936283 321.57764515 78.5625 316.75 C77.67240234 315.87214844 76.78230469 314.99429687 75.86523438 314.08984375 C69.80219287 308.04008868 64.33910751 301.69052668 59 295 C57.92790946 293.71738368 56.85160682 292.43826626 55.76953125 291.1640625 C46.9618386 280.67753128 39.36524395 269.53464928 32 258 C31.37448242 257.02909424 31.37448242 257.02909424 30.73632812 256.03857422 C17.26360233 234.98306212 6.92068447 212.28697492 -2 189 C-2.57617923 187.55052521 -3.15291451 186.1012712 -3.73046875 184.65234375 C-11.85746012 163.6387181 -16.80929148 140.23896958 -20 118 C-20.14808105 116.99195313 -20.29616211 115.98390625 -20.44873047 114.9453125 C-23.6690552 92.03906293 -23.72192691 69.07810285 -23 46 C-22.97609192 45.1249884 -22.95218384 44.24997681 -22.92755127 43.34844971 C-22.03147481 12.32913685 -22.03147481 12.32913685 -15.27734375 5.29296875 C-10.88038474 1.76494217 -5.69055909 -1.89685303 0 0 Z " fill="#E5E4E4" transform="translate(124,38)"/>
<path d="M0 0 C19.98063562 11.84566255 34.69045576 31.46061956 40.51171875 53.9140625 C42.3217863 63.73555331 42.54181709 73.76795778 37.171875 82.49609375 C33.22080898 87.767516 28.72320807 91.32508252 22.171875 92.49609375 C6.17211407 93.85330167 -7.03280109 88.85487581 -19.296875 78.7265625 C-34.98603305 65.07799373 -48.4759726 45.07466773 -50.0234375 23.8125 C-50.36576708 14.85487586 -48.62969956 7.76533315 -43.078125 0.62109375 C-31.09426566 -11.8645528 -13.60818909 -7.23639889 0 0 Z " fill="#E54B3B" transform="translate(411.828125,123.50390625)"/>
<path d="M0 0 C5.32305424 3.32274158 9.0163365 8.04900951 11 14 C11.78495136 20.52410395 10.77851395 25.58454026 7 31 C2.13939301 35.73269628 -3.01527063 38.36791581 -9.87304688 38.36132812 C-10.55431641 38.34521484 -11.23558594 38.32910156 -11.9375 38.3125 C-12.61490234 38.31572266 -13.29230469 38.31894531 -13.99023438 38.32226562 C-22.75239374 38.22985551 -28.57101489 35.65862741 -35 30 C-40.13595788 24.45857177 -41.61017939 19.23546055 -41.4296875 11.78515625 C-40.54545281 6.05370773 -37.3832286 2.78960389 -32.8671875 -0.6015625 C-22.60776095 -6.66241185 -10.31037519 -5.28428245 0 0 Z " fill="#E54B3B" transform="translate(330,64)"/>
<path d="M0 0 C4.34489178 2.95822419 7.55003809 6.64547143 10.94921875 10.625 C13.41703546 13.48296678 15.95106822 16.27713178 18.5 19.0625 C18.97187744 19.58166992 19.44375488 20.10083984 19.92993164 20.63574219 C22.55257607 23.50111443 25.25869911 26.19390413 28.125 28.8125 C30.51360979 31.18957061 31.07313085 32.20842293 32.25 35.5625 C32 39 32 39 30.0625 42.4375 C26.95339256 45.03899806 25.18936809 45.97744793 21.1015625 45.640625 C16.81674632 44.33447286 14.0569377 41.137687 11 38 C10.25492187 37.278125 9.50984375 36.55625 8.7421875 35.8125 C3.90316578 31.08830252 -0.6598859 26.18430105 -5 21 C-5.65613281 20.24460937 -6.31226563 19.48921875 -6.98828125 18.7109375 C-11.80024522 12.9442953 -11.80024522 12.9442953 -12.6875 8.75 C-11.83329312 5.33317246 -10.43987098 3.51163189 -8 1 C-5.09704195 -0.45147903 -3.22738221 -0.37239025 0 0 Z " fill="#E5E3E3" transform="translate(270,262)"/>
<path d="M0 0 C3.86398963 2.82930557 5.30329869 5.15484541 6.0390625 9.7734375 C6.25451462 11.63840842 6.44887405 13.50590509 6.625 15.375 C6.84894449 17.35331227 7.07682656 19.33118268 7.30859375 21.30859375 C7.47464111 22.76048096 7.47464111 22.76048096 7.64404297 24.24169922 C8.27920387 29.16354273 9.35576228 33.96934794 10.44921875 38.80859375 C11.30298051 43.75556791 11.92822562 47.57672072 9.125 51.875 C6.61333682 54.38666318 5.70615837 54.92153796 2.1875 55.3125 C-1.889121 54.91283127 -3.26458804 54.03934662 -6 51 C-7.62413427 45.40373211 -8.63568331 39.74724425 -9.5625 34 C-9.68818359 33.24460938 -9.81386719 32.48921875 -9.94335938 31.7109375 C-13.82729783 8.04128116 -13.82729783 8.04128116 -10.87109375 3.12109375 C-7.51524531 0.04562951 -4.38729139 -0.93346625 0 0 Z " fill="#E5E3E3" transform="translate(37,176)"/>
<path d="M0 0 C5.00125507 3.1176655 7.06823203 7.23986881 9.6875 12.3125 C13.34756591 19.20784024 17.27713218 25.70499142 21.9519043 31.96411133 C24.90185752 36.11068204 25.50150953 38.96044078 25 44 C24.14455592 46.63761924 23.49752294 47.64462647 21.25 49.25 C18.2251326 50.25828913 16.17387527 50.45341075 13 50 C6.96843001 44.68486047 3.14569898 37.78665145 -1 31 C-1.48968262 30.2049707 -1.97936523 29.40994141 -2.48388672 28.59082031 C-4.02724584 26.07047239 -5.54791506 23.53772757 -7.0625 21 C-7.55186035 20.19933105 -8.0412207 19.39866211 -8.54541016 18.57373047 C-11.06816317 14.27828088 -12.83705135 11.13749865 -12 6 C-8.54235344 0.81353016 -6.24330406 -0.61208863 0 0 Z " fill="#E5E3E3" transform="translate(228,200)"/>
<path d="M0 0 C3.42377698 1.26612005 6.73711349 2.74685888 10.0625 4.25 C17.38697095 7.4944352 24.64241752 10.41414663 32.28515625 12.83203125 C35.32578134 14.14015629 36.96224712 15.39994267 39 18 C39.89700403 21.6162682 39.38704611 24.99368011 38.0625 28.4375 C34.71579272 30.9728843 31.1279875 31.06909592 27 31 C23.50609345 30.21667114 20.29907692 28.93987467 17 27.5625 C16.09660889 27.20067627 15.19321777 26.83885254 14.26245117 26.46606445 C8.2198467 24.01137239 2.23883765 21.41060323 -3.6875 18.6875 C-4.39970703 18.36273682 -5.11191406 18.03797363 -5.84570312 17.70336914 C-9.22315453 16.09591232 -10.88098296 15.17852556 -13 12 C-13.39951993 8.90372055 -13.64950348 6.96012648 -13 4 C-8.88916917 -0.91294417 -5.92808071 -1.59302701 0 0 Z " fill="#E5E3E4" transform="translate(390,354)"/>
<path d="M0 0 C2.38140583 0.91497157 3.68413684 1.51186078 5.08325195 3.67407227 C5.36128662 4.36041748 5.63932129 5.0467627 5.92578125 5.75390625 C6.42005615 6.96071045 6.42005615 6.96071045 6.92431641 8.19189453 C9.05653942 13.758129 11.14493462 19.33769154 13.1875 24.9375 C14.07585467 27.363636 14.96512902 29.78943552 15.85546875 32.21484375 C16.24371826 33.27823975 16.63196777 34.34163574 17.03198242 35.43725586 C17.92750081 37.94025911 17.92750081 37.94025911 19 40 C19.68839635 46.99869622 19.68839635 46.99869622 16.9375 51 C13.25623347 53.50639423 11.37098953 53.71525283 7 53 C2.65733626 49.71505436 1.09466339 45.20973714 -0.875 40.3125 C-1.21724609 39.47614014 -1.55949219 38.63978027 -1.91210938 37.77807617 C-2.95911018 35.19201342 -3.98412273 32.59843438 -5 30 C-5.31356445 29.20078125 -5.62712891 28.4015625 -5.95019531 27.578125 C-6.82059941 25.32997401 -7.66606434 23.07440419 -8.5 20.8125 C-8.75507324 20.14323486 -9.01014648 19.47396973 -9.27294922 18.78442383 C-10.99964701 13.9393704 -11.39599989 10.06772838 -11 5 C-7.80929781 0.49547927 -5.48033913 -0.81622072 0 0 Z " fill="#E5E4E4" transform="translate(51,250)"/>
<path d="M0 0 C4.2479515 0.75856277 5.89652575 2.38559064 8.5 5.625 C10.73143511 8.92494782 12.77274733 12.32914912 14.8125 15.75 C18.95439266 22.6100281 23.11750332 29.16921538 28.20703125 35.37109375 C29.89420617 38.31218115 29.86553208 40.28557113 29.5 43.625 C27.70006226 46.32490662 26.416227 48.1668865 23.5 49.625 C19.61659925 50.15455465 17.96515936 49.94483761 14.69921875 47.69921875 C10.61396095 44.12161152 7.92373918 39.62950247 5.0625 35.0625 C4.49700439 34.17151611 3.93150879 33.28053223 3.34887695 32.36254883 C2.23080692 30.59338158 1.11793354 28.82091755 0.01074219 27.04492188 C-1.27664808 24.98276733 -2.58319419 22.93503279 -3.8984375 20.890625 C-8.88502313 12.87138117 -8.88502313 12.87138117 -9.25 8.6875 C-7.92897207 3.29330263 -5.44954401 0.97313286 0 0 Z " fill="#E5E3E4" transform="translate(78.5,318.375)"/>
<path d="M0 0 C4.41229051 1.29572117 8.62510668 3.00091096 12.875 4.75 C15.10120486 5.64151859 17.32776424 6.53215243 19.5546875 7.421875 C20.6281543 7.85822266 21.70162109 8.29457031 22.80761719 8.74414062 C26.77994574 10.30682478 30.80520984 11.68362588 34.85986328 13.01660156 C37 14 37 14 39 17 C39.55377603 21.90487343 39.75639171 23.89979388 36.9375 28 C33.24260549 30.51567286 31.41343819 30.29747332 27 30 C23.79370117 29.16137695 23.79370117 29.16137695 20.54296875 27.98828125 C19.34736328 27.55966797 18.15175781 27.13105469 16.91992188 26.68945312 C15.07237305 26.00786133 15.07237305 26.00786133 13.1875 25.3125 C11.96740234 24.87744141 10.74730469 24.44238281 9.49023438 23.99414062 C-9.62641743 17.06037385 -9.62641743 17.06037385 -13 12 C-13.65364121 5.13676732 -13.65364121 5.13676732 -11.5625 1.5 C-7.76114764 -0.72518187 -4.24973124 -0.54367238 0 0 Z " fill="#E5E3E4" transform="translate(249,467)"/>
<path d="M0 0 C3.98521865 0.81330993 6.60642898 2.4269288 9.0625 5.625 C10.03791505 8.89030911 10.17229291 12.10741318 10.3125 15.5 C10.43758488 17.38688745 10.56520575 19.27360842 10.6953125 21.16015625 C10.75235352 22.08715332 10.80939453 23.01415039 10.86816406 23.96923828 C11.13818892 27.65935185 11.64926133 31.27673974 12.1875 34.9375 C13.98258985 48.1835259 13.98258985 48.1835259 11.1875 52.5625 C8.68381796 54.99254434 7.70064131 55.53991449 4.25 56 C-0.09747242 55.48853266 -1.20025202 53.9877779 -3.9375 50.625 C-4.7526753 47.92688458 -5.29687956 45.62496792 -5.6875 42.875 C-5.85572266 41.87726563 -5.85572266 41.87726563 -6.02734375 40.859375 C-7.41118169 32.39354287 -8.17042412 23.95121652 -8.3125 15.375 C-8.34988281 14.50359375 -8.38726562 13.6321875 -8.42578125 12.734375 C-8.48792213 8.20499498 -8.42378774 6.26310045 -5.59765625 2.5546875 C-2.9375 0.625 -2.9375 0.625 0 0 Z " fill="#E5E4E4" transform="translate(184.9375,55.375)"/>
<path d="M0 0 C4.20413748 0.77429926 7.31110705 3.29903531 10.703125 5.78076172 C12.27447596 6.88195763 13.84742857 7.98087115 15.421875 9.07763672 C16.21207031 9.63386719 17.00226563 10.19009766 17.81640625 10.76318359 C22.1885143 13.77213848 26.72384982 16.51637128 31.25195312 19.28222656 C33.79956872 20.85044599 36.07927527 22.28191199 38.203125 24.40576172 C38.76398915 27.4639473 38.72529259 30.34346639 38.203125 33.40576172 C35.6251648 36.60868196 34.09646228 37.30124566 30.03125 37.77685547 C25.11726822 37.30050009 22.12821006 35.5058555 18.015625 32.90576172 C17.2745752 32.45233398 16.53352539 31.99890625 15.77001953 31.53173828 C13.56859187 30.17518286 11.38376703 28.79543142 9.203125 27.40576172 C8.29264404 26.83051758 8.29264404 26.83051758 7.36376953 26.24365234 C-8.3776693 16.24417312 -8.3776693 16.24417312 -10.796875 11.40576172 C-11.32668519 7.43218527 -11.11568974 5.86405791 -8.796875 2.53076172 C-5.62709669 0.28550208 -3.84011608 -0.11299612 0 0 Z " fill="#E5E4E5" transform="translate(180.796875,429.59423828125)"/>
<path d="M0 0 C2.90400945 2.0376269 5.41596424 4.57532866 8 7 C8.95551758 7.89501221 9.91103516 8.79002441 10.89550781 9.7121582 C13.57803193 12.24521563 16.22415289 14.81330828 18.85742188 17.39746094 C19.95983536 18.47300227 21.06934885 19.54131024 22.18554688 20.60253906 C23.81793505 22.15587927 25.42620046 23.73098565 27.03125 25.3125 C27.53112427 25.77938232 28.03099854 26.24626465 28.54602051 26.72729492 C31.22198301 29.41914203 31.98405217 30.85639322 32.40820312 34.67578125 C31.90705514 38.75690023 31.09595562 40.30096177 28 43 C24.75 44.1875 24.75 44.1875 21 44 C13.94463931 40.17014985 8.28790049 33.59490332 2.6796875 27.94042969 C1.11419914 26.36412451 -0.46182584 24.79891564 -2.0390625 23.234375 C-3.0449135 22.22720391 -4.05014473 21.2194134 -5.0546875 20.2109375 C-5.95687012 19.30649902 -6.85905273 18.40206055 -7.78857422 17.47021484 C-10.93882823 13.95130668 -12.04475594 12.25316626 -11.875 7.5 C-10.19028458 0.76113832 -6.85708302 -1.25713189 0 0 Z " fill="#E5E4E5" transform="translate(126,380)"/>
<path d="M0 0 C4.1312015 1.37706717 4.99193133 2.51729882 7.375 6.125 C8.5419477 9.00487843 9.39699691 11.95168904 10.25 14.9375 C12.36334576 22.03318526 14.69532948 28.94870383 17.54638672 35.78442383 C19.24366601 40.04472025 19.78394794 43.55473043 19.375 48.125 C17.37975077 51.05552231 15.94663515 52.77021503 12.40234375 53.5703125 C9.2029499 53.74971776 6.9513599 53.54840285 4.34375 51.6328125 C1.63093923 48.17720831 0.37202423 44.56057237 -1.0625 40.4375 C-1.360354 39.60114014 -1.65820801 38.76478027 -1.96508789 37.90307617 C-3.93902282 32.28316109 -5.81585869 26.63217836 -7.5625 20.9375 C-7.77382568 20.26823486 -7.98515137 19.59896973 -8.20288086 18.90942383 C-9.61390753 14.11385209 -10.01094475 10.0692652 -9.625 5.125 C-6.50390461 1.39491039 -4.89475778 0.16878475 0 0 Z " fill="#E5E4E4" transform="translate(198.625,129.875)"/>
<path d="M0 0 C4.52246844 0.81335153 7.62985699 3.55819573 11.1418457 6.37890625 C12.70710304 7.57742653 14.27484218 8.77271213 15.8449707 9.96484375 C16.61647461 10.55620117 17.38797852 11.14755859 18.18286133 11.75683594 C22.51692596 14.97104982 27.12738816 17.73340054 31.73168945 20.5390625 C34.32885307 22.35372345 35.87047108 23.72080529 37.4543457 26.44140625 C37.8918457 29.94140625 37.8918457 29.94140625 37.4543457 33.44140625 C34.8987799 36.67845627 32.89820555 38.26620103 28.7824707 38.765625 C24.51365746 38.34976643 21.69381991 36.57000645 18.2043457 34.25390625 C17.52484863 33.81481934 16.84535156 33.37573242 16.14526367 32.92333984 C10.54203898 29.25778577 5.04141304 25.43839776 -0.4206543 21.56640625 C-1.19957031 21.01960205 -1.97848633 20.47279785 -2.78100586 19.90942383 C-3.50513672 19.38630615 -4.22926758 18.86318848 -4.9753418 18.32421875 C-5.93802979 17.63416748 -5.93802979 17.63416748 -6.92016602 16.93017578 C-9.6492657 14.43061887 -10.45728311 12.13364718 -10.9206543 8.50390625 C-10.05423684 1.42816365 -6.49503688 -0.16715889 0 0 Z " fill="#E5E4E4" transform="translate(323.545654296875,314.55859375)"/>
<path d="M0 0 C2.3181362 1.89111111 3.66914015 3.33828031 5 6 C5.22470469 8.21584305 5.39331979 10.43746981 5.53515625 12.66015625 C5.57813339 13.32405869 5.62111053 13.98796112 5.66539001 14.67198181 C5.75565058 16.08156391 5.84377216 17.49128433 5.92993164 18.90112305 C6.06051683 21.03016672 6.19862963 23.15861762 6.33789062 25.28710938 C7.6495727 45.74099202 7.6495727 45.74099202 5 50 C1.85543449 52.09637701 -0.16094676 52.36556445 -3.8671875 52.65625 C-7.39601224 51.57045777 -9.25808162 49.10652884 -11 46 C-11.86389515 42.99731428 -12.11168908 40.04823822 -12.3125 36.9375 C-12.41522217 35.64477173 -12.41522217 35.64477173 -12.52001953 34.32592773 C-12.71958048 31.5513303 -12.86952556 28.77867542 -13 26 C-13.04527832 25.04254883 -13.09055664 24.08509766 -13.13720703 23.09863281 C-13.25159164 20.25289693 -13.32369099 17.41002464 -13.375 14.5625 C-13.40118408 13.68134521 -13.42736816 12.80019043 -13.4543457 11.89233398 C-13.46527195 7.72619685 -13.35811668 5.57254458 -11.1015625 1.96484375 C-7.28515904 -1.60328067 -5.03140529 -1.12772877 0 0 Z " fill="#E5E2E3" transform="translate(74,122)"/>
<path d="M0 0 C7.96728322 2.53182141 7.96728322 2.53182141 16.0390625 4.6953125 C20.98056844 5.93347765 23.66655366 7.31233049 26.5 11.5625 C26.36235904 15.34762637 26.02898063 17.78937446 23.875 20.9375 C20.36229881 23.34092713 16.77219647 23.90451467 12.53417969 23.26660156 C10.39172995 22.74831701 8.29483284 22.14640397 6.1875 21.5 C5.41712402 21.27248047 4.64674805 21.04496094 3.85302734 20.81054688 C2.22927223 20.32529428 0.60786272 19.83213061 -1.01123047 19.33154297 C-2.67929671 18.81610166 -4.3502758 18.30999983 -6.02392578 17.81298828 C-8.48083333 17.08255631 -10.92850714 16.32701335 -13.375 15.5625 C-14.12950439 15.33812256 -14.88400879 15.11374512 -15.66137695 14.88256836 C-20.30075949 13.3780323 -22.8761931 11.89981345 -25.5 7.5625 C-26.125 4.0625 -26.125 4.0625 -25.5 0.5625 C-18.48555719 -7.85483137 -9.05905052 -2.88456148 0 0 Z " fill="#E5E2E3" transform="translate(321.5,450.4375)"/>
<path d="M0 0 C2.95509188 1.3212308 5.714295 2.91828861 8.5 4.5625 C10.0837862 5.47413318 11.66843712 6.38426558 13.25390625 7.29296875 C14.0442627 7.74849121 14.83461914 8.20401367 15.64892578 8.67333984 C17.87816989 9.93125391 20.12693892 11.12882155 22.40234375 12.30078125 C23.42521484 12.82853149 23.42521484 12.82853149 24.46875 13.36694336 C25.74776949 14.02183814 27.03017259 14.67018114 28.31640625 15.31079102 C31.72037543 17.06954023 34.14294733 18.59317676 36 22 C35.93172242 25.82354429 35.50774917 28.2079113 33.4375 31.4375 C30.03415367 33.61913226 26.89625333 33.47260806 23 33 C20.34387464 31.98191341 18.09031851 30.97517637 15.625 29.625 C14.95452637 29.27284424 14.28405273 28.92068848 13.59326172 28.55786133 C11.38556978 27.38957572 9.19309959 26.19542672 7 25 C5.34387212 24.11565668 3.68761945 23.23154702 2.03125 22.34765625 C0.39478958 21.46286526 -1.24065031 20.57618381 -2.875 19.6875 C-3.65407715 19.26742676 -4.4331543 18.84735352 -5.23583984 18.41455078 C-5.95980957 18.01349121 -6.6837793 17.61243164 -7.4296875 17.19921875 C-8.39237549 16.67074341 -8.39237549 16.67074341 -9.37451172 16.1315918 C-11 15 -11 15 -13 12 C-13.39951993 8.90372055 -13.64950348 6.96012648 -13 4 C-8.75218705 -1.0766545 -6.25251114 -1.48473141 0 0 Z " fill="#E5E3E4" transform="translate(245,417)"/>
<path d="M0 0 C6.79734283 1.24849154 11.21277418 6.46453781 16.1328125 10.98828125 C20.02359712 14.406984 24.10173226 17.55592927 28.24023438 20.66821289 C31.70119721 23.3154959 34.62276922 25.88791777 37.0625 29.5625 C37.13699923 33.80895609 36.74227595 35.782757 33.9375 39 C30.25899791 40.99918592 28.22056727 41.00614316 24.0625 40.5625 C21.57475788 39.03499088 19.61581551 37.63020044 17.4375 35.75 C16.84138916 35.25733643 16.24527832 34.76467285 15.63110352 34.25708008 C14.38687683 33.22456693 13.1490422 32.18430605 11.91748047 31.13671875 C10.10839373 29.60144746 8.27903507 28.09467199 6.44140625 26.59375 C5.29335075 25.64694789 4.14618008 24.69907159 3 23.75 C2.47647949 23.31905029 1.95295898 22.88810059 1.41357422 22.4440918 C-7.52863028 14.8930574 -7.52863028 14.8930574 -8.5625 9 C-7.61040428 3.76347353 -5.31120572 1.01703939 0 0 Z " fill="#E5E3E4" transform="translate(182.9375,373.4375)"/>
<path d="M0 0 C4.32840446 2.56278437 5.71467526 5.05405937 6.96411133 9.8894043 C7.14095459 10.64777588 7.31779785 11.40614746 7.5 12.1875 C7.9083393 13.80254381 8.31854441 15.41711685 8.73046875 17.03125 C8.93591309 17.85367188 9.14135742 18.67609375 9.35302734 19.5234375 C9.98531265 21.94377794 10.68653332 24.32909973 11.42578125 26.71875 C11.6578125 27.47003174 11.88984375 28.22131348 12.12890625 28.99536133 C12.57203573 30.41638261 13.02090719 31.83563105 13.4765625 33.25268555 C14.81423308 37.62222964 15.33498248 41.43865529 15 46 C12.96261335 49.74879143 11.68490199 50.77169934 7.625 52.125 C3.80795575 51.99337778 2.2682747 51.33626986 -0.55957031 48.828125 C-3.59808743 44.97178328 -4.48299316 40.11466618 -5.6875 35.4375 C-5.96916016 34.41591797 -6.25082031 33.39433594 -6.54101562 32.34179688 C-7.38981132 29.23477336 -8.19889584 26.11963088 -9 23 C-9.2889917 21.90703613 -9.5779834 20.81407227 -9.87573242 19.68798828 C-10.28915894 18.09639893 -10.28915894 18.09639893 -10.7109375 16.47265625 C-10.96020996 15.5175415 -11.20948242 14.56242676 -11.46630859 13.57836914 C-12.2301754 9.88797694 -12.12608465 7.60347086 -11 4 C-8.01782629 -0.47326056 -5.17580188 -0.72642833 0 0 Z " fill="#E5E3E4" transform="translate(81,192)"/>
<path d="M0 0 C4.36088606 3.2296347 7.45386203 6.60796201 10.6875 11 C14.76679573 16.46519508 19.05051581 21.70106346 23.50854492 26.86132812 C27.99119692 32.07215568 27.99119692 32.07215568 28.01953125 35.05859375 C27.46702165 41.40724175 27.46702165 41.40724175 25.375 44.0625 C21.95337364 45.41314199 19.65443308 45.50405974 16 45 C9.75662541 41.0639595 5.49284248 34.75655595 1 29 C0.48469727 28.34902344 -0.03060547 27.69804687 -0.56152344 27.02734375 C-2.2213297 24.92433285 -3.86265922 22.80803455 -5.5 20.6875 C-6.29301514 19.6833606 -6.29301514 19.6833606 -7.10205078 18.65893555 C-10.00826183 14.84090672 -11.85576825 11.96878383 -12 7 C-9.4188969 1.32157317 -6.25943653 -0.85913835 0 0 Z " fill="#E5E3E4" transform="translate(139,321)"/>
<path d="M0 0 C4.10129278 1.4131187 6.91533978 4.71596235 9.97265625 7.6796875 C11.94674784 9.51893676 13.92502675 11.35246957 15.91015625 13.1796875 C16.42070557 13.6533374 16.93125488 14.1269873 17.45727539 14.61499023 C21.20266081 18.06131672 25.09467183 21.18281587 29.23046875 24.14453125 C31.86389278 26.46501475 32.81948971 28.68410497 33.34765625 32.1171875 C32.84293376 35.56612448 31.33476877 37.17862718 28.97265625 39.6796875 C25.82916891 41.25143117 23.44788353 41.01530135 19.97265625 40.6796875 C17.6027968 39.13853362 15.81385112 37.76720243 13.78515625 35.8671875 C13.2327124 35.37379883 12.68026855 34.88041016 12.11108398 34.37207031 C10.95960536 33.3389986 9.81519046 32.29800295 8.67773438 31.24951172 C7.02651208 29.72927126 5.35525807 28.23499521 3.67578125 26.74609375 C-10.55197475 14.0565325 -10.55197475 14.0565325 -11.65234375 8.5546875 C-10.88322147 5.01672501 -9.53257092 3.25859782 -7.02734375 0.6796875 C-4.54723709 -0.56036583 -2.7037238 -0.45524713 0 0 Z " fill="#E5E2E3" transform="translate(254.02734375,315.3203125)"/>
<path d="M0 0 C4.33371197 1.29930657 6.40231934 4.41331895 8.55493164 8.17651367 C10.14299833 11.26233168 11.66260972 14.37318633 13.16015625 17.50390625 C14.19090775 19.62717713 15.22341741 21.74959554 16.2578125 23.87109375 C16.7420166 24.87003662 17.2262207 25.86897949 17.72509766 26.89819336 C18.88427013 29.20437339 20.10996047 31.41371534 21.4375 33.625 C23.78083215 37.86505276 23.72140033 39.87285765 23.09765625 44.62890625 C21.66015625 47.12890625 21.66015625 47.12890625 19.09765625 48.62890625 C15.86068133 49.43968555 13.33152259 49.46127708 10.09765625 48.62890625 C5.13743328 43.95843736 2.0402821 37.18634068 -1.02734375 31.19140625 C-1.44371094 30.39669922 -1.86007813 29.60199219 -2.2890625 28.78320312 C-10.92247582 12.15238028 -10.92247582 12.15238028 -9.90234375 4.62890625 C-7.4168839 0.48647317 -4.70555012 0.1590345 0 0 Z " fill="#E5E4E5" transform="translate(101.90234375,259.37109375)"/>
<path d="M0 0 C6.49678732 1.32587496 10.22991983 6.81789127 13.75 12.0625 C16.42396353 15.9611201 19.12729977 19.76977102 22.15234375 23.40625 C22.65870361 24.01927979 23.16506348 24.63230957 23.68676758 25.26391602 C24.66377945 26.43483621 25.65397657 27.5949195 26.65893555 28.74194336 C29.11578086 31.70927889 30.04744125 33.48537765 30.46484375 37.35546875 C29.9666151 41.40418122 29.13447497 42.94686798 26.0625 45.625 C22.8125 46.875 22.8125 46.875 19.0625 46.625 C12.47171865 42.3285995 7.86784235 35.83657581 3.3125 29.5625 C2.66667969 28.69044922 2.02085937 27.81839844 1.35546875 26.91992188 C-0.42781173 24.50132484 -2.1879115 22.06803757 -3.9375 19.625 C-4.37376709 19.02647217 -4.81003418 18.42794434 -5.25952148 17.8112793 C-8.42468241 13.32477473 -8.70541787 11.00042512 -7.9375 5.625 C-5.52360696 2.217151 -4.09852524 0.87202665 0 0 Z " fill="#E5E3E4" transform="translate(206.9375,261.375)"/>
<path d="M0 0 C3.39670508 2.10740697 4.79225486 3.43621795 6.1875 7.22265625 C6.455625 8.48980469 6.72375 9.75695312 7 11.0625 C7.31556728 12.49005831 7.6333773 13.91712222 7.953125 15.34375 C8.11748047 16.0965625 8.28183594 16.849375 8.45117188 17.625 C9.02623387 20.11352452 9.67951779 22.56937152 10.359375 25.03125 C10.59011719 25.86906006 10.82085937 26.70687012 11.05859375 27.57006836 C11.50926722 29.19468894 11.96476552 30.81798117 12.42578125 32.43969727 C13.68206354 37.05742355 14.41677512 41.16782473 14 46 C11.40783917 49.69186542 9.95850936 50.82883761 5.5 51.625 C2.14697493 51.02624552 0.32833017 50.51693707 -1.88671875 47.890625 C-4.5851878 43.30796178 -5.71728506 38.11614193 -7 33 C-7.22252441 32.12875488 -7.44504883 31.25750977 -7.67431641 30.35986328 C-8.40741343 27.45282296 -9.11446548 24.54064766 -9.8125 21.625 C-10.04388672 20.68599854 -10.27527344 19.74699707 -10.51367188 18.77954102 C-11.73505143 13.47381906 -12.37470701 9.311368 -11 4 C-7.62243132 0.23642347 -5.00273693 -0.83378949 0 0 Z " fill="#E5E3E4" transform="translate(157,135)"/>
<path d="M0 0 C5.13679349 1.13845852 9.57609169 4.38515829 14.00463867 7.11083984 C15.03395508 7.72830078 16.06327148 8.34576172 17.1237793 8.98193359 C19.1652391 10.20861722 21.20197431 11.44320173 23.23364258 12.68603516 C26.9052804 14.91968048 30.61652386 17.08344102 34.33544922 19.23730469 C36.19213867 20.48583984 36.19213867 20.48583984 37.19213867 22.48583984 C37.76520457 29.59185704 37.76520457 29.59185704 35.62963867 32.92333984 C32.48065346 34.94192011 29.89685339 35.776414 26.19213867 35.48583984 C22.4078281 34.05786249 18.99382414 32.08101404 15.50463867 30.04833984 C14.53236328 29.49791016 13.56008789 28.94748047 12.55834961 28.38037109 C-7.86775523 16.704414 -7.86775523 16.704414 -9.80786133 11.48583984 C-10.41264885 7.42512361 -10.16591544 5.98494558 -7.74536133 2.61083984 C-4.88037974 0.53829998 -3.48783628 -0.11429533 0 0 Z " fill="#E5E3E4" transform="translate(306.807861328125,358.51416015625)"/>
<path d="M0 0 C5.54549674 1.84849891 7.57247074 6.17285513 10.11517334 11.2383728 C10.42263489 11.86869415 10.73009644 12.4990155 11.046875 13.1484375 C11.37415588 13.81283844 11.70143677 14.47723938 12.03863525 15.16177368 C12.72428616 16.56029884 13.40650583 17.96051096 14.08544922 19.36230469 C15.12196755 21.49376419 16.17951604 23.61389673 17.23828125 25.734375 C17.90496233 27.10092102 18.57037012 28.46808911 19.234375 29.8359375 C19.70771271 30.77534683 19.70771271 30.77534683 20.19061279 31.73373413 C22.22869581 36.01679365 22.83832933 39.4058248 22.375 44.125 C19.76382396 47.43248965 17.74896185 48.94180509 13.5625 49.5 C9.24675412 48.99226519 8.21093461 47.36171185 5.375 44.125 C3.96826796 41.86043724 2.70629617 39.67555694 1.5 37.3125 C1.16484375 36.66595459 0.8296875 36.01940918 0.484375 35.35327148 C-0.5719955 33.28644884 -1.60355287 31.20929126 -2.625 29.125 C-2.96950195 28.42213867 -3.31400391 27.71927734 -3.66894531 26.99511719 C-4.67813527 24.90280042 -5.65726074 22.7992721 -6.625 20.6875 C-6.92776855 20.05030029 -7.23053711 19.41310059 -7.54248047 18.7565918 C-9.68628992 13.92138989 -10.1094728 10.30722587 -9.625 5.125 C-6.50390461 1.39491039 -4.89475778 0.16878475 0 0 Z " fill="#E5E3E4" transform="translate(175.625,200.875)"/>
<path d="M0 0 C3.68743361 1.06058865 7.23857616 2.42142262 10.8125 3.8125 C12.69293966 4.53015572 14.57444715 5.24501991 16.45703125 5.95703125 C17.37564941 6.30459473 18.29426758 6.6521582 19.24072266 7.01025391 C22.7251752 8.26011859 26.25000347 9.3027303 29.81518555 10.2956543 C33.82598888 11.58866666 35.60603419 12.40905128 38 16 C38.55544077 20.28482877 38.46371025 22.29695542 36.0625 25.9375 C32.01049878 28.66639878 28.69824699 28.5344739 24 28 C19.92795472 27.02156675 16.0124673 25.6971015 12.0625 24.3125 C11.04220703 23.97283203 10.02191406 23.63316406 8.97070312 23.28320312 C-8.44095118 17.33857322 -8.44095118 17.33857322 -12 12 C-12.56551375 7.63746537 -12.49322651 5.70247412 -9.9375 2.0625 C-6.41777599 -0.40879558 -4.12056401 -0.59850448 0 0 Z " fill="#E5E4E4" transform="translate(371,391)"/>
<path d="M0 0 C2.95353954 2.24354123 3.89208556 3.46844289 4.63769531 7.14111328 C4.70053711 8.35524902 4.76337891 9.56938477 4.828125 10.8203125 C4.8668573 11.47901337 4.9055896 12.13771423 4.94549561 12.81637573 C5.06453364 14.91872903 5.15731915 17.02133775 5.25 19.125 C5.32646999 20.51571699 5.40457976 21.90634484 5.484375 23.296875 C5.69993874 27.19652957 5.86017261 31.09683311 6 35 C6.03802734 36.02109863 6.07605469 37.04219727 6.11523438 38.09423828 C6.14327148 39.41657471 6.14327148 39.41657471 6.171875 40.765625 C6.18831055 41.50844727 6.20474609 42.25126953 6.22167969 43.01660156 C5.95895712 45.36721628 5.34511607 46.68602355 4 48.625 C0.6906195 51.24492623 -0.93539505 51.9412394 -5.06640625 51.55859375 C-7.77463724 50.77621591 -9.50200124 49.43341538 -11.11474609 47.1340332 C-14.65554863 38.59841407 -13.29580966 26.62681217 -13.4375 17.5 C-13.48326172 16.26507813 -13.52902344 15.03015625 -13.57617188 13.7578125 C-13.68444048 5.07749485 -13.68444048 5.07749485 -11.76074219 2.04907227 C-7.8414558 -1.43698468 -4.86531822 -1.53167425 0 0 Z " fill="#E5E4E5" transform="translate(152,67)"/>
<path d="M0 0 C0.07336802 5.45980337 -0.12718788 10.76384443 -0.75 16.1875 C-0.8428125 17.21520508 -0.8428125 17.21520508 -0.9375 18.26367188 C-1.47862692 22.94892909 -2.5889871 25.72419842 -6 29 C-8.67592775 30.20230551 -11.09784065 30.40883594 -14 30 C-16.74066224 27.84245739 -18.44396502 26.11206995 -20 23 C-19.91075148 20.2764805 -19.76646668 17.58986689 -19.5625 14.875 C-19.51029297 14.12089844 -19.45808594 13.36679687 -19.40429688 12.58984375 C-19.27454996 10.7262063 -19.13792512 8.86305004 -19 7 C-16.58757287 5.82379175 -14.17072309 4.6589044 -11.75 3.5 C-11.06808594 3.16613281 -10.38617188 2.83226562 -9.68359375 2.48828125 C-6.1479008 0.80625256 -3.98070714 0 0 0 Z " fill="#E4DFDF" transform="translate(160,19)"/>
<path d="M0 0 C2.53976764 0.5012863 5.06454393 1.0484559 7.59008789 1.61694336 C8.4647168 1.80772461 9.3393457 1.99850586 10.24047852 2.19506836 C12.37935663 2.6625827 14.51654724 3.13666153 16.65258789 3.61694336 C15.21950654 7.57601153 13.3211684 10.90412517 11.02758789 14.42944336 C10.39594727 15.40526367 9.76430664 16.38108398 9.11352539 17.38647461 C8.63141602 18.1225293 8.14930664 18.85858398 7.65258789 19.61694336 C-7.73079228 18.68559049 -7.73079228 18.68559049 -13.40991211 13.86694336 C-14.80349065 10.52235485 -14.85069299 8.20281965 -14.34741211 4.61694336 C-10.32001473 -1.11904684 -6.61338365 -1.07918866 0 0 Z " fill="#E4E1E1" transform="translate(462.347412109375,378.383056640625)"/>
<path d="M0 0 C0 4.96925267 -1.26866774 5.98476152 -4.4375 9.6875 C-5.26121094 10.66074219 -6.08492188 11.63398438 -6.93359375 12.63671875 C-9 15 -9 15 -10 16 C-11.91911376 15.96173546 -13.83688026 15.84381588 -15.75 15.6875 C-16.79671875 15.60886719 -17.8434375 15.53023438 -18.921875 15.44921875 C-23.29160744 14.81150399 -26.11757757 13.8127575 -29.375 10.8125 C-31 8 -31 8 -31 4.4375 C-27.18872916 -8.6637435 -10.10532781 -1.94913326 0 0 Z " fill="#E4E0E1" transform="translate(456,413)"/>
<path d="M0 0 C0.36761893 20.75004628 0.36761893 20.75004628 -2.9375 26.1875 C-5.41542436 28.36506989 -6.53007246 28.93734299 -9.8125 29.375 C-13 29 -13 29 -15.6796875 27.08984375 C-18.9286169 22.76340746 -18.56702207 19.43848601 -18.3125 14.1875 C-18.28994141 13.30384766 -18.26738281 12.42019531 -18.24414062 11.50976562 C-18.18547428 9.3391109 -18.09579979 7.1693331 -18 5 C-16.74661167 4.52337537 -15.49257685 4.04845066 -14.23828125 3.57421875 C-13.54001221 3.30955811 -12.84174316 3.04489746 -12.12231445 2.7722168 C-8.08791622 1.30427689 -4.30882458 0 0 0 Z " fill="#E5E2E2" transform="translate(195,7)"/>
<path d="M0 0 C1.62035156 0.03287109 1.62035156 0.03287109 3.2734375 0.06640625 C4.31757813 0.10636719 5.36171875 0.14632813 6.4375 0.1875 C7.85869141 0.23970703 7.85869141 0.23970703 9.30859375 0.29296875 C12.93908874 1.2466982 14.56295442 3.22681021 17 6 C-1.63726472 18.7347971 -1.63726472 18.7347971 -9.8515625 17.76171875 C-13.80620052 16.35961982 -15.00717352 14.71078035 -17 11 C-17.80908922 7.03546283 -17.35120875 5.57698581 -15.25 2.125 C-10.26767336 -1.13267511 -5.78588753 -0.39355082 0 0 Z " fill="#E4E0E1" transform="translate(383,463)"/>
<path d="M0 0 C2.86724686 0.57344937 3.8614515 0.8614515 6 3 C6.4548944 6.56313727 6.32400261 10.16118497 6.3125 13.75 C6.32861328 14.74 6.34472656 15.73 6.36132812 16.75 C6.36498212 22.2163749 6.20594718 26.34499473 3 31 C-0.75047482 33.50031654 -2.55856266 33.53603554 -7 33 C-10.15713121 30.71611785 -11.77669456 29.32575029 -12.43359375 25.42578125 C-11.80291171 20.44282492 -9.54197874 16.66372757 -7.125 12.3125 C-6.66480469 11.45849609 -6.20460938 10.60449219 -5.73046875 9.72460938 C-3.92239981 6.38885319 -2.10612104 3.15918156 0 0 Z " fill="#E3D8D8" transform="translate(36,123)"/>
<path d="M0 0 C3 1 3 1 4 3 C3.9618234 5.54021233 3.86057277 8.03098777 3.6875 10.5625 C3.63827393 11.28469727 3.58904785 12.00689453 3.53833008 12.75097656 C2.58026065 25.50805051 2.58026065 25.50805051 -0.625 30.5625 C-4.09674443 32.663819 -7.0504097 32.75268832 -11 32 C-13.5 30.6875 -13.5 30.6875 -15 28 C-15.54665587 24.24743525 -15.57915369 20.75016349 -15 17 C-13.1875 14.625 -13.1875 14.625 -11 13 C-10.5875 12.2575 -10.175 11.515 -9.75 10.75 C-7.10547982 6.59432543 -3.54486375 3.39330188 0 0 Z " fill="#E4E0E1" transform="translate(78,71)"/>
<path d="M0 0 C1.10859375 0.12890625 2.2171875 0.2578125 3.359375 0.390625 C13.50030735 1.62956244 13.50030735 1.62956244 18 6 C18.495 7.485 18.495 7.485 19 9 C15.31516323 10.15451922 11.62670901 11.29703672 7.9375 12.4375 C6.89916016 12.76298828 5.86082031 13.08847656 4.79101562 13.42382812 C-6.17662119 16.80116391 -6.17662119 16.80116391 -11 17 C-14.72370731 13.8308874 -15.7635727 12.22512329 -16.6875 7.4375 C-15.95724777 3.78623885 -15.01935321 1.99132338 -11.94921875 -0.19140625 C-7.97626232 -1.83950641 -4.10550464 -0.7403369 0 0 Z " fill="#E4DFDF" transform="translate(324,489)"/>
</svg>
